<svg width="1" height="1" viewBox="0 0 102.4 102.4" xmlns="http://www.w3.org/2000/svg">
    <title>Green Energy Leaf Logo</title>
    <path d="M59.61 56.674a12.305 12.305 0 0 1 4.234 2.54c2.249 2.064 3.625 4.974 3.625 8.175 0 3.202-1.376 6.112-3.625 8.176-2.17 2.01-5.133 3.254-8.414 3.254-3.254 0-6.244-1.243-8.414-3.254-2.248-2.064-3.624-4.974-3.624-8.176 0-3.201 1.375-6.111 3.624-8.175 1.165-1.059 2.54-1.932 4.075-2.487v4.18a9.276 9.276 0 0 0-1.773 1.244c-1.481 1.349-2.38 3.201-2.38 5.238 0 2.038.899 3.89 2.38 5.24 1.535 1.428 3.704 2.301 6.086 2.301 2.407 0 4.55-.873 6.085-2.302 1.482-1.35 2.381-3.201 2.381-5.239 0-2.037-.9-3.889-2.38-5.238-.556-.53-1.191-.953-1.906-1.323z" fill="#67bd53" transform="translate(-4.247 -8.675)"/>
    <path fill="#67bd53" d="M53.34 56.171h4.18v8.784h-4.18z" transform="translate(-4.247 -8.675)"/>
    <path d="M44.741 51.012h21.775l14.367 30.136c7.54-7.118 9.155-18.362 6.959-26.485C83.212 40.005 67.257 26.51 55.51 19.05c-16.696 10.53-28.655 23.6-32.491 35.798-2.038 6.562-.82 19.42 7.144 26.538Zm18.944-5.927H47.572l8.096-16.827zM52.017 91.387v9.313h7.17v-9.313c9.208-1.27 15.293-4.207 19.368-8.176H32.359c3.466 3.281 7.487 6.456 19.367 8.176z" fill="#67bd53" transform="translate(-4.247 -8.675)"/>
</svg>
